{
	"asset":{
		"generator":"Khronos glTF Blender I/O v4.0.44",
		"version":"2.0"
	},
	"scene":0,
	"scenes":[
		{
			"name":"Scene",
			"nodes":[
				0,
				1,
				2,
				3,
				4,
				5,
				6,
				7,
				8,
				9,
				10
			]
		}
	],
	"nodes":[
		{
			"mesh":0,
			"name":"Curve",
			"scale":[
				5.934478759765625,
				5.934478759765625,
				5.934478759765625
			],
			"translation":[
				-0.49934375286102295,
				0,
				0.4270702600479126
			]
		},
		{
			"mesh":1,
			"name":"Curve.001",
			"scale":[
				5.934478759765625,
				5.934478759765625,
				5.934478759765625
			],
			"translation":[
				-0.49934375286102295,
				0,
				0.4270702600479126
			]
		},
		{
			"mesh":2,
			"name":"Curve.002",
			"scale":[
				5.934478759765625,
				5.934478759765625,
				5.934478759765625
			],
			"translation":[
				-0.49934375286102295,
				0,
				0.4270702600479126
			]
		},
		{
			"mesh":3,
			"name":"Curve.003",
			"scale":[
				5.934478759765625,
				5.934478759765625,
				5.934478759765625
			],
			"translation":[
				-0.49934375286102295,
				0,
				0.4270702600479126
			]
		},
		{
			"mesh":4,
			"name":"Curve.004",
			"scale":[
				5.934478759765625,
				5.934478759765625,
				5.934478759765625
			],
			"translation":[
				-0.49934375286102295,
				0,
				0.4270702600479126
			]
		},
		{
			"mesh":5,
			"name":"Curve.005",
			"scale":[
				5.934478759765625,
				5.934478759765625,
				5.934478759765625
			],
			"translation":[
				-0.49934375286102295,
				0,
				0.4270702600479126
			]
		},
		{
			"mesh":6,
			"name":"Curve.006",
			"scale":[
				5.934478759765625,
				5.934478759765625,
				5.934478759765625
			],
			"translation":[
				-0.49934375286102295,
				0,
				0.4270702600479126
			]
		},
		{
			"mesh":7,
			"name":"Curve.007",
			"scale":[
				5.934478759765625,
				5.934478759765625,
				5.934478759765625
			],
			"translation":[
				-0.49934375286102295,
				0,
				0.4270702600479126
			]
		},
		{
			"mesh":8,
			"name":"Curve.008",
			"scale":[
				5.934478759765625,
				5.934478759765625,
				5.934478759765625
			],
			"translation":[
				-0.49934375286102295,
				0,
				0.4270702600479126
			]
		},
		{
			"mesh":9,
			"name":"Curve.009",
			"scale":[
				5.934478759765625,
				5.934478759765625,
				5.934478759765625
			],
			"translation":[
				-0.49934375286102295,
				0,
				0.4270702600479126
			]
		},
		{
			"mesh":10,
			"name":"Curve.010",
			"scale":[
				5.934478759765625,
				5.934478759765625,
				5.934478759765625
			],
			"translation":[
				-0.49934375286102295,
				0,
				0.4270702600479126
			]
		}
	],
	"meshes":[
		{
			"name":"Mesh",
			"primitives":[
				{
					"attributes":{
						"POSITION":0,
						"NORMAL":1
					},
					"indices":2
				}
			]
		},
		{
			"name":"Mesh.001",
			"primitives":[
				{
					"attributes":{
						"POSITION":3,
						"NORMAL":4
					},
					"indices":2
				}
			]
		},
		{
			"name":"Mesh.002",
			"primitives":[
				{
					"attributes":{
						"POSITION":5,
						"NORMAL":6
					},
					"indices":7
				}
			]
		},
		{
			"name":"Mesh.003",
			"primitives":[
				{
					"attributes":{
						"POSITION":8,
						"NORMAL":9
					},
					"indices":10
				}
			]
		},
		{
			"name":"Mesh.004",
			"primitives":[
				{
					"attributes":{
						"POSITION":11,
						"NORMAL":12
					},
					"indices":7
				}
			]
		},
		{
			"name":"Mesh.005",
			"primitives":[
				{
					"attributes":{
						"POSITION":13,
						"NORMAL":14
					},
					"indices":15
				}
			]
		},
		{
			"name":"Mesh.006",
			"primitives":[
				{
					"attributes":{
						"POSITION":16,
						"NORMAL":17
					},
					"indices":18
				}
			]
		},
		{
			"name":"Mesh.007",
			"primitives":[
				{
					"attributes":{
						"POSITION":19,
						"NORMAL":20
					},
					"indices":21
				}
			]
		},
		{
			"name":"Mesh.008",
			"primitives":[
				{
					"attributes":{
						"POSITION":22,
						"NORMAL":23
					},
					"indices":15
				}
			]
		},
		{
			"name":"Mesh.009",
			"primitives":[
				{
					"attributes":{
						"POSITION":24,
						"NORMAL":25
					},
					"indices":26
				}
			]
		},
		{
			"name":"Mesh.010",
			"primitives":[
				{
					"attributes":{
						"POSITION":27,
						"NORMAL":28
					},
					"indices":7
				}
			]
		}
	],
	"accessors":[
		{
			"bufferView":0,
			"componentType":5126,
			"count":16,
			"max":[
				0.07270348817110062,
				0,
				-0.07594696432352066
			],
			"min":[
				0.0002822279930114746,
				-0.003397918539121747,
				-0.16647934913635254
			],
			"type":"VEC3"
		},
		{
			"bufferView":1,
			"componentType":5126,
			"count":16,
			"type":"VEC3"
		},
		{
			"bufferView":2,
			"componentType":5123,
			"count":24,
			"type":"SCALAR"
		},
		{
			"bufferView":3,
			"componentType":5126,
			"count":16,
			"max":[
				0.06197882443666458,
				0,
				-0.023463644087314606
			],
			"min":[
				0.0031045079231262207,
				-0.003397918539121747,
				-0.10496664047241211
			],
			"type":"VEC3"
		},
		{
			"bufferView":4,
			"componentType":5126,
			"count":16,
			"type":"VEC3"
		},
		{
			"bufferView":5,
			"componentType":5126,
			"count":16,
			"max":[
				0.07016343623399734,
				0,
				-0.031082190573215485
			],
			"min":[
				0.033302903175354004,
				-0.003397918539121747,
				-0.04966163635253906
			],
			"type":"VEC3"
		},
		{
			"bufferView":6,
			"componentType":5126,
			"count":16,
			"type":"VEC3"
		},
		{
			"bufferView":7,
			"componentType":5123,
			"count":24,
			"type":"SCALAR"
		},
		{
			"bufferView":8,
			"componentType":5126,
			"count":12,
			"max":[
				0.09302390366792679,
				0,
				0.00023850041907280684
			],
			"min":[
				0.010724663734436035,
				-0.003397918539121747,
				-0.03244936466217041
			],
			"type":"VEC3"
		},
		{
			"bufferView":9,
			"componentType":5126,
			"count":12,
			"type":"VEC3"
		},
		{
			"bufferView":10,
			"componentType":5123,
			"count":18,
			"type":"SCALAR"
		},
		{
			"bufferView":11,
			"componentType":5126,
			"count":16,
			"max":[
				0.14467163383960724,
				0,
				-0.0014545099111273885
			],
			"min":[
				0.09567528963088989,
				-0.003397918539121747,
				-0.05163681507110596
			],
			"type":"VEC3"
		},
		{
			"bufferView":12,
			"componentType":5126,
			"count":16,
			"type":"VEC3"
		},
		{
			"bufferView":13,
			"componentType":5126,
			"count":12,
			"max":[
				0.15793634951114655,
				0,
				-0.007097877562046051
			],
			"min":[
				0.11204451322555542,
				-0.003397918539121747,
				-0.06179487705230713
			],
			"type":"VEC3"
		},
		{
			"bufferView":14,
			"componentType":5126,
			"count":12,
			"type":"VEC3"
		},
		{
			"bufferView":15,
			"componentType":5123,
			"count":18,
			"type":"SCALAR"
		},
		{
			"bufferView":16,
			"componentType":5126,
			"count":16,
			"max":[
				0.16470982134342194,
				0,
				-0.08017949014902115
			],
			"min":[
				0.11486679315567017,
				-0.003397918539121747,
				-0.1760730743408203
			],
			"type":"VEC3"
		},
		{
			"bufferView":17,
			"componentType":5126,
			"count":16,
			"type":"VEC3"
		},
		{
			"bufferView":18,
			"componentType":5123,
			"count":24,
			"type":"SCALAR"
		},
		{
			"bufferView":19,
			"componentType":5126,
			"count":16,
			"max":[
				0.13084246218204498,
				0,
				-0.10134211927652359
			],
			"min":[
				0.07055699825286865,
				-0.003397918539121747,
				-0.17212271690368652
			],
			"type":"VEC3"
		},
		{
			"bufferView":20,
			"componentType":5126,
			"count":16,
			"type":"VEC3"
		},
		{
			"bufferView":21,
			"componentType":5123,
			"count":24,
			"type":"SCALAR"
		},
		{
			"bufferView":22,
			"componentType":5126,
			"count":12,
			"max":[
				0.08314592391252518,
				0,
				-0.07510045915842056
			],
			"min":[
				0.035278499126434326,
				-0.003397918539121747,
				-0.17155838012695312
			],
			"type":"VEC3"
		},
		{
			"bufferView":23,
			"componentType":5126,
			"count":12,
			"type":"VEC3"
		},
		{
			"bufferView":24,
			"componentType":5126,
			"count":16,
			"max":[
				0.10431302338838577,
				0,
				-0.09457007795572281
			],
			"min":[
				0.09313523769378662,
				-0.003397918539121747,
				-0.10581314563751221
			],
			"type":"VEC3"
		},
		{
			"bufferView":25,
			"componentType":5126,
			"count":16,
			"type":"VEC3"
		},
		{
			"bufferView":26,
			"componentType":5123,
			"count":24,
			"type":"SCALAR"
		},
		{
			"bufferView":27,
			"componentType":5126,
			"count":16,
			"max":[
				0.11023981124162674,
				0,
				-0.07171443849802017
			],
			"min":[
				0.10047316551208496,
				-0.003397918539121747,
				-0.09734809398651123
			],
			"type":"VEC3"
		},
		{
			"bufferView":28,
			"componentType":5126,
			"count":16,
			"type":"VEC3"
		}
	],
	"bufferViews":[
		{
			"buffer":0,
			"byteLength":192,
			"byteOffset":0,
			"target":34962
		},
		{
			"buffer":0,
			"byteLength":192,
			"byteOffset":192,
			"target":34962
		},
		{
			"buffer":0,
			"byteLength":48,
			"byteOffset":384,
			"target":34963
		},
		{
			"buffer":0,
			"byteLength":192,
			"byteOffset":432,
			"target":34962
		},
		{
			"buffer":0,
			"byteLength":192,
			"byteOffset":624,
			"target":34962
		},
		{
			"buffer":0,
			"byteLength":192,
			"byteOffset":816,
			"target":34962
		},
		{
			"buffer":0,
			"byteLength":192,
			"byteOffset":1008,
			"target":34962
		},
		{
			"buffer":0,
			"byteLength":48,
			"byteOffset":1200,
			"target":34963
		},
		{
			"buffer":0,
			"byteLength":144,
			"byteOffset":1248,
			"target":34962
		},
		{
			"buffer":0,
			"byteLength":144,
			"byteOffset":1392,
			"target":34962
		},
		{
			"buffer":0,
			"byteLength":36,
			"byteOffset":1536,
			"target":34963
		},
		{
			"buffer":0,
			"byteLength":192,
			"byteOffset":1572,
			"target":34962
		},
		{
			"buffer":0,
			"byteLength":192,
			"byteOffset":1764,
			"target":34962
		},
		{
			"buffer":0,
			"byteLength":144,
			"byteOffset":1956,
			"target":34962
		},
		{
			"buffer":0,
			"byteLength":144,
			"byteOffset":2100,
			"target":34962
		},
		{
			"buffer":0,
			"byteLength":36,
			"byteOffset":2244,
			"target":34963
		},
		{
			"buffer":0,
			"byteLength":192,
			"byteOffset":2280,
			"target":34962
		},
		{
			"buffer":0,
			"byteLength":192,
			"byteOffset":2472,
			"target":34962
		},
		{
			"buffer":0,
			"byteLength":48,
			"byteOffset":2664,
			"target":34963
		},
		{
			"buffer":0,
			"byteLength":192,
			"byteOffset":2712,
			"target":34962
		},
		{
			"buffer":0,
			"byteLength":192,
			"byteOffset":2904,
			"target":34962
		},
		{
			"buffer":0,
			"byteLength":48,
			"byteOffset":3096,
			"target":34963
		},
		{
			"buffer":0,
			"byteLength":144,
			"byteOffset":3144,
			"target":34962
		},
		{
			"buffer":0,
			"byteLength":144,
			"byteOffset":3288,
			"target":34962
		},
		{
			"buffer":0,
			"byteLength":192,
			"byteOffset":3432,
			"target":34962
		},
		{
			"buffer":0,
			"byteLength":192,
			"byteOffset":3624,
			"target":34962
		},
		{
			"buffer":0,
			"byteLength":48,
			"byteOffset":3816,
			"target":34963
		},
		{
			"buffer":0,
			"byteLength":192,
			"byteOffset":3864,
			"target":34962
		},
		{
			"buffer":0,
			"byteLength":192,
			"byteOffset":4056,
			"target":34962
		}
	],
	"buffers":[
		{
			"byteLength":4248,
			"uri":"glass.bin"
		}
	]
}
