{
	"asset":{
		"generator":"Khronos glTF Blender I/O v4.0.44",
		"version":"2.0"
	},
	"scene":0,
	"scenes":[
		{
			"name":"Scene",
			"nodes":[
				0,
				1,
				2,
				3,
				4,
				5,
				6,
				7,
				8,
				9,
				10
			]
		}
	],
	"nodes":[
		{
			"mesh":0,
			"name":"Curve",
			"scale":[
				5.642091274261475,
				5.642091274261475,
				5.642091274261475
			],
			"translation":[
				-0.42376717925071716,
				0,
				0.4068164527416229
			]
		},
		{
			"mesh":1,
			"name":"Curve.001",
			"scale":[
				5.642091274261475,
				5.642091274261475,
				5.642091274261475
			],
			"translation":[
				-0.42376717925071716,
				0,
				0.4068164527416229
			]
		},
		{
			"mesh":2,
			"name":"Curve.002",
			"scale":[
				5.642091274261475,
				5.642091274261475,
				5.642091274261475
			],
			"translation":[
				-0.42376717925071716,
				0,
				0.4068164527416229
			]
		},
		{
			"mesh":3,
			"name":"Curve.003",
			"scale":[
				5.642091274261475,
				5.642091274261475,
				5.642091274261475
			],
			"translation":[
				-0.42376717925071716,
				0,
				0.4068164527416229
			]
		},
		{
			"mesh":4,
			"name":"Curve.004",
			"scale":[
				5.642091274261475,
				5.642091274261475,
				5.642091274261475
			],
			"translation":[
				-0.42376717925071716,
				0,
				0.4068164527416229
			]
		},
		{
			"mesh":5,
			"name":"Curve.005",
			"scale":[
				5.642091274261475,
				5.642091274261475,
				5.642091274261475
			],
			"translation":[
				-0.42376717925071716,
				0,
				0.4068164527416229
			]
		},
		{
			"mesh":6,
			"name":"Curve.006",
			"scale":[
				5.642091274261475,
				5.642091274261475,
				5.642091274261475
			],
			"translation":[
				-0.42376717925071716,
				0,
				0.4068164527416229
			]
		},
		{
			"mesh":7,
			"name":"Curve.007",
			"scale":[
				5.642091274261475,
				5.642091274261475,
				5.642091274261475
			],
			"translation":[
				-0.42376717925071716,
				0,
				0.4068164527416229
			]
		},
		{
			"mesh":8,
			"name":"Curve.008",
			"scale":[
				5.642091274261475,
				5.642091274261475,
				5.642091274261475
			],
			"translation":[
				-0.42376717925071716,
				0,
				0.4068164527416229
			]
		},
		{
			"mesh":9,
			"name":"Curve.009",
			"scale":[
				5.642091274261475,
				5.642091274261475,
				5.642091274261475
			],
			"translation":[
				-0.42376717925071716,
				0,
				0.4068164527416229
			]
		},
		{
			"mesh":10,
			"name":"Curve.010",
			"scale":[
				5.642091274261475,
				5.642091274261475,
				5.642091274261475
			],
			"translation":[
				-0.42376717925071716,
				0,
				0.4068164527416229
			]
		}
	],
	"materials":[
		{
			"doubleSided":true,
			"name":"SVGMat",
			"pbrMetallicRoughness":{
				"baseColorFactor":[
					0.6938717365264893,
					0.6938717365264893,
					0.6938717365264893,
					1
				],
				"metallicFactor":0,
				"roughnessFactor":0.4000000059604645
			}
		},
		{
			"doubleSided":true,
			"name":"SVGMat.001",
			"pbrMetallicRoughness":{
				"baseColorFactor":[
					0.6938717365264893,
					0.6938717365264893,
					0.6938717365264893,
					1
				],
				"metallicFactor":0,
				"roughnessFactor":0.4000000059604645
			}
		},
		{
			"doubleSided":true,
			"name":"SVGMat.002",
			"pbrMetallicRoughness":{
				"baseColorFactor":[
					0.6938717365264893,
					0.6938717365264893,
					0.6938717365264893,
					1
				],
				"metallicFactor":0,
				"roughnessFactor":0.4000000059604645
			}
		},
		{
			"doubleSided":true,
			"name":"SVGMat.003",
			"pbrMetallicRoughness":{
				"baseColorFactor":[
					0.6938717365264893,
					0.6938717365264893,
					0.6938717365264893,
					1
				],
				"metallicFactor":0,
				"roughnessFactor":0.4000000059604645
			}
		},
		{
			"doubleSided":true,
			"name":"SVGMat.004",
			"pbrMetallicRoughness":{
				"baseColorFactor":[
					0.6938717365264893,
					0.6938717365264893,
					0.6938717365264893,
					1
				],
				"metallicFactor":0,
				"roughnessFactor":0.4000000059604645
			}
		},
		{
			"doubleSided":true,
			"name":"SVGMat.005",
			"pbrMetallicRoughness":{
				"baseColorFactor":[
					0.6938717365264893,
					0.6938717365264893,
					0.6938717365264893,
					1
				],
				"metallicFactor":0,
				"roughnessFactor":0.4000000059604645
			}
		},
		{
			"doubleSided":true,
			"name":"SVGMat.006",
			"pbrMetallicRoughness":{
				"baseColorFactor":[
					0.6938717365264893,
					0.6938717365264893,
					0.6938717365264893,
					1
				],
				"metallicFactor":0,
				"roughnessFactor":0.4000000059604645
			}
		},
		{
			"doubleSided":true,
			"name":"SVGMat.007",
			"pbrMetallicRoughness":{
				"baseColorFactor":[
					0.6938717365264893,
					0.6938717365264893,
					0.6938717365264893,
					1
				],
				"metallicFactor":0,
				"roughnessFactor":0.4000000059604645
			}
		},
		{
			"doubleSided":true,
			"name":"SVGMat.008",
			"pbrMetallicRoughness":{
				"baseColorFactor":[
					0.6938717365264893,
					0.6938717365264893,
					0.6938717365264893,
					1
				],
				"metallicFactor":0,
				"roughnessFactor":0.4000000059604645
			}
		},
		{
			"doubleSided":true,
			"name":"SVGMat.009",
			"pbrMetallicRoughness":{
				"baseColorFactor":[
					0.6938717365264893,
					0.6938717365264893,
					0.6938717365264893,
					1
				],
				"metallicFactor":0,
				"roughnessFactor":0.4000000059604645
			}
		},
		{
			"doubleSided":true,
			"name":"SVGMat.010",
			"pbrMetallicRoughness":{
				"baseColorFactor":[
					0.6938717365264893,
					0.6938717365264893,
					0.6938717365264893,
					1
				],
				"metallicFactor":0,
				"roughnessFactor":0.4000000059604645
			}
		}
	],
	"meshes":[
		{
			"name":"Curve",
			"primitives":[
				{
					"attributes":{
						"POSITION":0,
						"NORMAL":1,
						"TEXCOORD_0":2
					},
					"indices":3,
					"material":0
				}
			]
		},
		{
			"name":"Curve.001",
			"primitives":[
				{
					"attributes":{
						"POSITION":4,
						"NORMAL":5,
						"TEXCOORD_0":6
					},
					"indices":7,
					"material":1
				}
			]
		},
		{
			"name":"Curve.002",
			"primitives":[
				{
					"attributes":{
						"POSITION":8,
						"NORMAL":9,
						"TEXCOORD_0":10
					},
					"indices":11,
					"material":2
				}
			]
		},
		{
			"name":"Curve.003",
			"primitives":[
				{
					"attributes":{
						"POSITION":12,
						"NORMAL":13,
						"TEXCOORD_0":14
					},
					"indices":15,
					"material":3
				}
			]
		},
		{
			"name":"Curve.004",
			"primitives":[
				{
					"attributes":{
						"POSITION":16,
						"NORMAL":17,
						"TEXCOORD_0":18
					},
					"indices":19,
					"material":4
				}
			]
		},
		{
			"name":"Curve.005",
			"primitives":[
				{
					"attributes":{
						"POSITION":20,
						"NORMAL":21,
						"TEXCOORD_0":22
					},
					"indices":23,
					"material":5
				}
			]
		},
		{
			"name":"Curve.006",
			"primitives":[
				{
					"attributes":{
						"POSITION":24,
						"NORMAL":25,
						"TEXCOORD_0":26
					},
					"indices":27,
					"material":6
				}
			]
		},
		{
			"name":"Curve.007",
			"primitives":[
				{
					"attributes":{
						"POSITION":28,
						"NORMAL":29,
						"TEXCOORD_0":30
					},
					"indices":31,
					"material":7
				}
			]
		},
		{
			"name":"Curve.008",
			"primitives":[
				{
					"attributes":{
						"POSITION":32,
						"NORMAL":33,
						"TEXCOORD_0":34
					},
					"indices":35,
					"material":8
				}
			]
		},
		{
			"name":"Curve.009",
			"primitives":[
				{
					"attributes":{
						"POSITION":36,
						"NORMAL":37,
						"TEXCOORD_0":38
					},
					"indices":39,
					"material":9
				}
			]
		},
		{
			"name":"Curve.010",
			"primitives":[
				{
					"attributes":{
						"POSITION":40,
						"NORMAL":41,
						"TEXCOORD_0":42
					},
					"indices":43,
					"material":10
				}
			]
		}
	],
	"accessors":[
		{
			"bufferView":0,
			"componentType":5126,
			"count":24,
			"max":[
				0.07140368223190308,
				0.004011870361864567,
				-0.07646763324737549
			],
			"min":[
				0.0002822279930114746,
				0,
				-0.16647934913635254
			],
			"type":"VEC3"
		},
		{
			"bufferView":1,
			"componentType":5126,
			"count":24,
			"type":"VEC3"
		},
		{
			"bufferView":2,
			"componentType":5126,
			"count":24,
			"type":"VEC2"
		},
		{
			"bufferView":3,
			"componentType":5123,
			"count":36,
			"type":"SCALAR"
		},
		{
			"bufferView":4,
			"componentType":5126,
			"count":24,
			"max":[
				0.06067901849746704,
				0.004011870361864567,
				-0.023984313011169434
			],
			"min":[
				0.0031045079231262207,
				0,
				-0.10496664047241211
			],
			"type":"VEC3"
		},
		{
			"bufferView":5,
			"componentType":5126,
			"count":24,
			"type":"VEC3"
		},
		{
			"bufferView":6,
			"componentType":5126,
			"count":24,
			"type":"VEC2"
		},
		{
			"bufferView":7,
			"componentType":5123,
			"count":36,
			"type":"SCALAR"
		},
		{
			"bufferView":8,
			"componentType":5126,
			"count":24,
			"max":[
				0.0688636302947998,
				0.004011870361864567,
				-0.03160285949707031
			],
			"min":[
				0.033302903175354004,
				0,
				-0.04966163635253906
			],
			"type":"VEC3"
		},
		{
			"bufferView":9,
			"componentType":5126,
			"count":24,
			"type":"VEC3"
		},
		{
			"bufferView":10,
			"componentType":5126,
			"count":24,
			"type":"VEC2"
		},
		{
			"bufferView":11,
			"componentType":5123,
			"count":36,
			"type":"SCALAR"
		},
		{
			"bufferView":12,
			"componentType":5126,
			"count":18,
			"max":[
				0.09172409772872925,
				0.004011870361864567,
				-0.0002821683883666992
			],
			"min":[
				0.010724663734436035,
				0,
				-0.03244936466217041
			],
			"type":"VEC3"
		},
		{
			"bufferView":13,
			"componentType":5126,
			"count":18,
			"type":"VEC3"
		},
		{
			"bufferView":14,
			"componentType":5126,
			"count":18,
			"type":"VEC2"
		},
		{
			"bufferView":15,
			"componentType":5123,
			"count":24,
			"type":"SCALAR"
		},
		{
			"bufferView":16,
			"componentType":5126,
			"count":24,
			"max":[
				0.1433718204498291,
				0.004011870361864567,
				-0.0019751787185668945
			],
			"min":[
				0.09567528963088989,
				0,
				-0.05163681507110596
			],
			"type":"VEC3"
		},
		{
			"bufferView":17,
			"componentType":5126,
			"count":24,
			"type":"VEC3"
		},
		{
			"bufferView":18,
			"componentType":5126,
			"count":24,
			"type":"VEC2"
		},
		{
			"bufferView":19,
			"componentType":5123,
			"count":36,
			"type":"SCALAR"
		},
		{
			"bufferView":20,
			"componentType":5126,
			"count":18,
			"max":[
				0.1566365361213684,
				0.004011870361864567,
				-0.007618546485900879
			],
			"min":[
				0.11204451322555542,
				0,
				-0.06179487705230713
			],
			"type":"VEC3"
		},
		{
			"bufferView":21,
			"componentType":5126,
			"count":18,
			"type":"VEC3"
		},
		{
			"bufferView":22,
			"componentType":5126,
			"count":18,
			"type":"VEC2"
		},
		{
			"bufferView":23,
			"componentType":5123,
			"count":24,
			"type":"SCALAR"
		},
		{
			"bufferView":24,
			"componentType":5126,
			"count":24,
			"max":[
				0.1634100079536438,
				0.004011870361864567,
				-0.08070015907287598
			],
			"min":[
				0.11486679315567017,
				0,
				-0.1760730743408203
			],
			"type":"VEC3"
		},
		{
			"bufferView":25,
			"componentType":5126,
			"count":24,
			"type":"VEC3"
		},
		{
			"bufferView":26,
			"componentType":5126,
			"count":24,
			"type":"VEC2"
		},
		{
			"bufferView":27,
			"componentType":5123,
			"count":36,
			"type":"SCALAR"
		},
		{
			"bufferView":28,
			"componentType":5126,
			"count":24,
			"max":[
				0.12954264879226685,
				0.004011870361864567,
				-0.10186278820037842
			],
			"min":[
				0.07055699825286865,
				0,
				-0.17212271690368652
			],
			"type":"VEC3"
		},
		{
			"bufferView":29,
			"componentType":5126,
			"count":24,
			"type":"VEC3"
		},
		{
			"bufferView":30,
			"componentType":5126,
			"count":24,
			"type":"VEC2"
		},
		{
			"bufferView":31,
			"componentType":5123,
			"count":36,
			"type":"SCALAR"
		},
		{
			"bufferView":32,
			"componentType":5126,
			"count":18,
			"max":[
				0.08184611797332764,
				0.004011870361864567,
				-0.07562112808227539
			],
			"min":[
				0.035278499126434326,
				0,
				-0.17155838012695312
			],
			"type":"VEC3"
		},
		{
			"bufferView":33,
			"componentType":5126,
			"count":18,
			"type":"VEC3"
		},
		{
			"bufferView":34,
			"componentType":5126,
			"count":18,
			"type":"VEC2"
		},
		{
			"bufferView":35,
			"componentType":5123,
			"count":24,
			"type":"SCALAR"
		},
		{
			"bufferView":36,
			"componentType":5126,
			"count":24,
			"max":[
				0.10301321744918823,
				0.004011870361864567,
				-0.09509074687957764
			],
			"min":[
				0.09313523769378662,
				0,
				-0.10581314563751221
			],
			"type":"VEC3"
		},
		{
			"bufferView":37,
			"componentType":5126,
			"count":24,
			"type":"VEC3"
		},
		{
			"bufferView":38,
			"componentType":5126,
			"count":24,
			"type":"VEC2"
		},
		{
			"bufferView":39,
			"componentType":5123,
			"count":36,
			"type":"SCALAR"
		},
		{
			"bufferView":40,
			"componentType":5126,
			"count":24,
			"max":[
				0.1089400053024292,
				0.004011870361864567,
				-0.072235107421875
			],
			"min":[
				0.10047316551208496,
				0,
				-0.09734809398651123
			],
			"type":"VEC3"
		},
		{
			"bufferView":41,
			"componentType":5126,
			"count":24,
			"type":"VEC3"
		},
		{
			"bufferView":42,
			"componentType":5126,
			"count":24,
			"type":"VEC2"
		},
		{
			"bufferView":43,
			"componentType":5123,
			"count":36,
			"type":"SCALAR"
		}
	],
	"bufferViews":[
		{
			"buffer":0,
			"byteLength":288,
			"byteOffset":0,
			"target":34962
		},
		{
			"buffer":0,
			"byteLength":288,
			"byteOffset":288,
			"target":34962
		},
		{
			"buffer":0,
			"byteLength":192,
			"byteOffset":576,
			"target":34962
		},
		{
			"buffer":0,
			"byteLength":72,
			"byteOffset":768,
			"target":34963
		},
		{
			"buffer":0,
			"byteLength":288,
			"byteOffset":840,
			"target":34962
		},
		{
			"buffer":0,
			"byteLength":288,
			"byteOffset":1128,
			"target":34962
		},
		{
			"buffer":0,
			"byteLength":192,
			"byteOffset":1416,
			"target":34962
		},
		{
			"buffer":0,
			"byteLength":72,
			"byteOffset":1608,
			"target":34963
		},
		{
			"buffer":0,
			"byteLength":288,
			"byteOffset":1680,
			"target":34962
		},
		{
			"buffer":0,
			"byteLength":288,
			"byteOffset":1968,
			"target":34962
		},
		{
			"buffer":0,
			"byteLength":192,
			"byteOffset":2256,
			"target":34962
		},
		{
			"buffer":0,
			"byteLength":72,
			"byteOffset":2448,
			"target":34963
		},
		{
			"buffer":0,
			"byteLength":216,
			"byteOffset":2520,
			"target":34962
		},
		{
			"buffer":0,
			"byteLength":216,
			"byteOffset":2736,
			"target":34962
		},
		{
			"buffer":0,
			"byteLength":144,
			"byteOffset":2952,
			"target":34962
		},
		{
			"buffer":0,
			"byteLength":48,
			"byteOffset":3096,
			"target":34963
		},
		{
			"buffer":0,
			"byteLength":288,
			"byteOffset":3144,
			"target":34962
		},
		{
			"buffer":0,
			"byteLength":288,
			"byteOffset":3432,
			"target":34962
		},
		{
			"buffer":0,
			"byteLength":192,
			"byteOffset":3720,
			"target":34962
		},
		{
			"buffer":0,
			"byteLength":72,
			"byteOffset":3912,
			"target":34963
		},
		{
			"buffer":0,
			"byteLength":216,
			"byteOffset":3984,
			"target":34962
		},
		{
			"buffer":0,
			"byteLength":216,
			"byteOffset":4200,
			"target":34962
		},
		{
			"buffer":0,
			"byteLength":144,
			"byteOffset":4416,
			"target":34962
		},
		{
			"buffer":0,
			"byteLength":48,
			"byteOffset":4560,
			"target":34963
		},
		{
			"buffer":0,
			"byteLength":288,
			"byteOffset":4608,
			"target":34962
		},
		{
			"buffer":0,
			"byteLength":288,
			"byteOffset":4896,
			"target":34962
		},
		{
			"buffer":0,
			"byteLength":192,
			"byteOffset":5184,
			"target":34962
		},
		{
			"buffer":0,
			"byteLength":72,
			"byteOffset":5376,
			"target":34963
		},
		{
			"buffer":0,
			"byteLength":288,
			"byteOffset":5448,
			"target":34962
		},
		{
			"buffer":0,
			"byteLength":288,
			"byteOffset":5736,
			"target":34962
		},
		{
			"buffer":0,
			"byteLength":192,
			"byteOffset":6024,
			"target":34962
		},
		{
			"buffer":0,
			"byteLength":72,
			"byteOffset":6216,
			"target":34963
		},
		{
			"buffer":0,
			"byteLength":216,
			"byteOffset":6288,
			"target":34962
		},
		{
			"buffer":0,
			"byteLength":216,
			"byteOffset":6504,
			"target":34962
		},
		{
			"buffer":0,
			"byteLength":144,
			"byteOffset":6720,
			"target":34962
		},
		{
			"buffer":0,
			"byteLength":48,
			"byteOffset":6864,
			"target":34963
		},
		{
			"buffer":0,
			"byteLength":288,
			"byteOffset":6912,
			"target":34962
		},
		{
			"buffer":0,
			"byteLength":288,
			"byteOffset":7200,
			"target":34962
		},
		{
			"buffer":0,
			"byteLength":192,
			"byteOffset":7488,
			"target":34962
		},
		{
			"buffer":0,
			"byteLength":72,
			"byteOffset":7680,
			"target":34963
		},
		{
			"buffer":0,
			"byteLength":288,
			"byteOffset":7752,
			"target":34962
		},
		{
			"buffer":0,
			"byteLength":288,
			"byteOffset":8040,
			"target":34962
		},
		{
			"buffer":0,
			"byteLength":192,
			"byteOffset":8328,
			"target":34962
		},
		{
			"buffer":0,
			"byteLength":72,
			"byteOffset":8520,
			"target":34963
		}
	],
	"buffers":[
		{
			"byteLength":8592,
			"uri":"glass-opaque.bin"
		}
	]
}
